<svg width="515" height="514" viewBox="0 0 515 514" fill="none" xmlns="http://www.w3.org/2000/svg">
<rect y="0.5" width="515" height="513" rx="40" fill="url(#paint0_linear_2001_114)"/>
<path opacity="0.3" d="M239.306 205.351L392.314 293.719V373.451L252.828 292.845L239.357 297.266L239.306 205.351Z" fill="url(#paint1_linear_2001_114)"/>
<path d="M270.411 250.024C270.411 256.604 266.504 259.688 261.722 256.912C256.941 254.136 253.033 246.579 253.033 239.999C253.033 233.419 256.941 230.335 261.722 233.111C266.504 235.835 270.411 243.444 270.411 250.024Z" fill="#0033FF"/>
<path opacity="0.15" d="M278.638 247.453L312.16 266.834V273.825L278.638 254.445V247.453Z" fill="#0E070C"/>
<path opacity="0.15" d="M278.638 261.487L378.741 319.32V326.311L278.638 268.479V261.487Z" fill="#0E070C"/>
<path opacity="0.15" d="M278.638 275.47L356.941 320.708V327.699L278.638 282.461V275.47Z" fill="#0E070C"/>
<path opacity="0.3" d="M128.149 98.991L214.319 148.701V308.319L128.149 258.609V98.991Z" fill="url(#paint2_linear_2001_114)"/>
<path opacity="0.15" d="M136.632 193.733L205.835 233.676V240.668L136.632 200.725V193.733Z" fill="#0E070C"/>
<path opacity="0.15" d="M141.465 210.132L200.951 244.472V251.463L141.465 217.123V210.132Z" fill="#0E070C"/>
<path d="M166.607 238.714L106.658 204.118V221.956L166.607 256.552V238.714Z" fill="#00FFC2"/>
<path d="M181.054 161.707C181.054 169.418 176.581 173.068 171.08 169.881C165.578 166.693 161.105 157.8 161.105 150.038C161.105 142.327 165.578 138.677 171.08 141.864C176.581 145.154 181.054 153.996 181.054 161.707Z" fill="#00FFC2"/>
<path d="M171.079 176.101C162.185 170.909 154.833 175.793 153.547 186.948C153.342 188.901 154.781 191.472 156.581 192.5L185.578 209.464C187.378 210.492 188.817 209.669 188.611 207.459C187.326 194.762 179.974 181.293 171.079 176.101Z" fill="#00FFC2"/>
<path opacity="0.3" d="M187.943 290.172L274.113 339.882V499.5L187.943 449.79V290.172Z" fill="url(#paint3_linear_2001_114)"/>
<path opacity="0.15" d="M196.375 384.915L265.579 424.858V431.849L196.375 391.906V384.915Z" fill="#0E070C"/>
<path opacity="0.15" d="M201.208 401.313L260.694 435.653V442.644L201.208 408.305V401.313Z" fill="#0E070C"/>
<path d="M295.45 469.736L235.501 435.139V452.977L295.45 487.574V469.736Z" fill="#0033FF"/>
<path d="M240.797 352.888C240.797 360.599 236.324 364.249 230.822 361.062C225.321 357.823 220.848 348.981 220.848 341.219C220.848 333.508 225.321 329.858 230.822 333.045C236.324 336.284 240.797 345.177 240.797 352.888Z" fill="#0033FF"/>
<path d="M230.822 367.282C221.928 362.09 214.576 366.974 213.29 378.129C213.085 380.082 214.524 382.653 216.324 383.681L245.321 400.645C247.121 401.673 248.56 400.851 248.355 398.64C247.069 385.943 239.717 372.474 230.822 367.282Z" fill="#0033FF"/>
<path opacity="0.3" d="M163.008 276.241L10 187.873V267.605L149.537 348.159L163.059 368.156L163.008 276.241Z" fill="url(#paint4_linear_2001_114)"/>
<path d="M131.902 284.98C131.902 291.56 135.81 299.117 140.591 301.893C145.373 304.669 149.28 301.584 149.28 295.004C149.28 288.424 145.373 280.868 140.591 278.092C135.81 275.316 131.902 278.4 131.902 284.98Z" fill="#00FFC2"/>
<path opacity="0.15" d="M123.676 272.9L90.1541 253.571V260.562L123.676 279.942V272.9Z" fill="#0E070C"/>
<path opacity="0.15" d="M123.676 286.934L23.573 229.101V236.093L123.676 293.925V286.934Z" fill="#0E070C"/>
<path opacity="0.15" d="M123.676 300.968L45.3726 255.73V262.721L123.676 307.959V300.968Z" fill="#0E070C"/>
<path opacity="0.4" d="M389.434 79.4564C302.648 29.335 231.697 88.7096 231.697 213.319L209.537 200.519C209.589 59.7677 289.846 -8.70595 389.434 48.7667V79.4564Z" fill="url(#paint5_linear_2001_114)"/>
<path opacity="0.4" d="M317.044 262.67C317.044 207.356 349.434 181.19 389.383 204.22V173.531C337.198 143.406 294.884 177.592 294.884 249.869L317.044 262.67Z" fill="url(#paint6_linear_2001_114)"/>
<path opacity="0.4" d="M273.856 237.172C273.856 148.855 325.578 107.113 389.28 143.92V113.231C313.342 69.3807 251.697 119.142 251.697 224.372L273.856 237.172Z" fill="url(#paint7_linear_2001_114)"/>
<path opacity="0.4" d="M368.355 292.229C379.974 298.963 389.383 291.303 389.383 275.213C389.383 259.123 379.974 240.616 368.355 233.882C356.735 227.148 347.326 234.807 347.326 250.898C347.326 267.039 356.735 285.494 368.355 292.229Z" fill="url(#paint8_linear_2001_114)"/>
<path opacity="0.07" d="M410 64.5485C323.162 14.4271 252.262 73.8017 252.262 198.411L230.103 185.611C230.154 44.8598 310.411 -23.6138 410 33.8588V64.5485Z" fill="url(#paint9_linear_2001_114)"/>
<path opacity="0.07" d="M337.609 247.762C337.609 192.448 370 166.282 409.948 189.312V158.623C357.763 128.498 315.45 162.684 315.45 234.962L337.609 247.762Z" fill="url(#paint10_linear_2001_114)"/>
<path opacity="0.07" d="M294.422 222.264C294.422 133.948 346.144 92.2053 409.846 129.012V98.3227C333.907 54.4728 272.262 104.234 272.262 209.464L294.422 222.264Z" fill="url(#paint11_linear_2001_114)"/>
<path opacity="0.07" d="M388.92 277.321C400.54 284.055 409.949 276.395 409.949 260.305C409.949 244.215 400.54 225.708 388.92 218.974C377.301 212.24 367.892 219.899 367.892 235.99C367.892 252.131 377.301 270.586 388.92 277.321Z" fill="url(#paint12_linear_2001_114)"/>
<path opacity="0.2" d="M321.568 357.155C324.653 358.903 327.121 363.221 327.121 366.768V382.447L337.506 388.41C340.591 390.158 343.059 394.476 343.059 398.075C343.059 401.622 340.591 403.061 337.506 401.313L327.121 395.35V411.029C327.121 414.576 324.653 416.016 321.568 414.268C318.483 412.52 316.015 408.202 316.015 404.603V388.924L305.63 382.961C302.545 381.213 300.077 376.895 300.077 373.348C300.077 369.801 302.545 368.362 305.63 370.11L316.015 376.073V360.394C316.015 356.847 318.483 355.407 321.568 357.155Z" fill="url(#paint13_linear_2001_114)"/>
<path opacity="0.2" d="M76.5809 133.228L90.874 161.296C92.8277 165.151 92.5193 169.007 90.1542 169.932C87.7892 170.857 84.293 168.441 82.3393 164.586L82.1851 164.226V195.378C82.1851 198.925 79.7172 200.365 76.6324 198.617C73.5475 196.818 71.0797 192.551 71.0797 189.004V157.852L70.9254 158.006C68.9717 159.599 65.4241 157.954 63.1105 154.305C60.7455 150.655 60.437 146.439 62.3907 144.846L76.5809 133.228Z" fill="url(#paint14_linear_2001_114)"/>
<defs>
<linearGradient id="paint0_linear_2001_114" x1="476.375" y1="116.794" x2="139.64" y2="151.62" gradientUnits="userSpaceOnUse">
<stop stop-color="#394B5E"/>
<stop offset="1" stop-color="#2A313D"/>
</linearGradient>
<linearGradient id="paint1_linear_2001_114" x1="305.08" y1="207.947" x2="324.753" y2="368.348" gradientUnits="userSpaceOnUse">
<stop stop-color="white"/>
<stop offset="1" stop-color="white" stop-opacity="0"/>
</linearGradient>
<linearGradient id="paint2_linear_2001_114" x1="223.547" y1="113.037" x2="147.076" y2="245.542" gradientUnits="userSpaceOnUse">
<stop stop-color="white"/>
<stop offset="1" stop-color="white" stop-opacity="0"/>
</linearGradient>
<linearGradient id="paint3_linear_2001_114" x1="283.294" y1="304.206" x2="206.823" y2="436.711" gradientUnits="userSpaceOnUse">
<stop stop-color="white"/>
<stop offset="1" stop-color="white" stop-opacity="0"/>
</linearGradient>
<linearGradient id="paint4_linear_2001_114" x1="129.627" y1="244.266" x2="50.6327" y2="306.094" gradientUnits="userSpaceOnUse">
<stop stop-color="white"/>
<stop offset="1" stop-color="white" stop-opacity="0"/>
</linearGradient>
<linearGradient id="paint5_linear_2001_114" x1="358.862" y1="25.276" x2="231.042" y2="174.444" gradientUnits="userSpaceOnUse">
<stop stop-color="white"/>
<stop offset="1" stop-color="white" stop-opacity="0"/>
</linearGradient>
<linearGradient id="paint6_linear_2001_114" x1="437.609" y1="92.8132" x2="309.789" y2="241.981" gradientUnits="userSpaceOnUse">
<stop stop-color="white"/>
<stop offset="1" stop-color="white" stop-opacity="0"/>
</linearGradient>
<linearGradient id="paint7_linear_2001_114" x1="399.053" y1="59.2679" x2="271.233" y2="208.435" gradientUnits="userSpaceOnUse">
<stop stop-color="white"/>
<stop offset="1" stop-color="white" stop-opacity="0"/>
</linearGradient>
<linearGradient id="paint8_linear_2001_114" x1="481.862" y1="130.656" x2="354.041" y2="279.823" gradientUnits="userSpaceOnUse">
<stop stop-color="white"/>
<stop offset="1" stop-color="white" stop-opacity="0"/>
</linearGradient>
<linearGradient id="paint9_linear_2001_114" x1="379.427" y1="10.3681" x2="251.606" y2="159.536" gradientUnits="userSpaceOnUse">
<stop stop-color="white"/>
<stop offset="1" stop-color="white" stop-opacity="0"/>
</linearGradient>
<linearGradient id="paint10_linear_2001_114" x1="458.174" y1="77.9057" x2="330.354" y2="227.073" gradientUnits="userSpaceOnUse">
<stop stop-color="white"/>
<stop offset="1" stop-color="white" stop-opacity="0"/>
</linearGradient>
<linearGradient id="paint11_linear_2001_114" x1="419.618" y1="44.3601" x2="291.798" y2="193.528" gradientUnits="userSpaceOnUse">
<stop stop-color="white"/>
<stop offset="1" stop-color="white" stop-opacity="0"/>
</linearGradient>
<linearGradient id="paint12_linear_2001_114" x1="502.427" y1="115.747" x2="374.607" y2="264.915" gradientUnits="userSpaceOnUse">
<stop stop-color="white"/>
<stop offset="1" stop-color="white" stop-opacity="0"/>
</linearGradient>
<linearGradient id="paint13_linear_2001_114" x1="332.317" y1="377.214" x2="305.4" y2="398.459" gradientUnits="userSpaceOnUse">
<stop stop-color="white"/>
<stop offset="1" stop-color="white" stop-opacity="0"/>
</linearGradient>
<linearGradient id="paint14_linear_2001_114" x1="86.7679" y1="161.524" x2="60.6923" y2="176.062" gradientUnits="userSpaceOnUse">
<stop stop-color="white"/>
<stop offset="1" stop-color="white" stop-opacity="0"/>
</linearGradient>
</defs>
</svg>
